<?xml version="1.0" standalone="no"?><!DOCTYPE svg PUBLIC "-//W3C//DTD SVG 1.1//EN" "http://www.w3.org/Graphics/SVG/1.1/DTD/svg11.dtd"><svg t="1482742998269" class="icon" style="" viewBox="0 0 1024 1024" version="1.1" xmlns="http://www.w3.org/2000/svg" p-id="13846" xmlns:xlink="http://www.w3.org/1999/xlink" width="20" height="20"><defs><style type="text/css"></style></defs><path d="M986.141 882.060c-16.603 20.923-47.282 24.467-68.158 7.815l-877.018-695.993c-20.875-16.603-24.418-47.282-7.815-68.206l4.757-6.020c16.603-20.923 47.282-24.418 68.206-7.865l876.921 695.895c20.923 16.652 24.467 47.331 7.865 68.206l-4.757 6.165z" p-id="13847" fill="#e6e6e6"></path><path d="M571.662 426.512c1.020-9.952 2.038-20.292 2.962-29.904l14.030-142.674c1.020-11.117 6.020-18.35 14.903-21.699 8.884-3.398 20.194 3.009 34.175 19.175 14.563 18.108 33.108 38.060 55.391 59.516 22.379 21.457 48.982 36.846 79.954 46.166 29.759 8.496 51.069 19.952 64.225 34.175 13.156 14.223 20.098 35.147 21.068 62.527 0.437 16.894 2.234 28.641 5.438 35.244 3.3 6.603 7.331 10.534 12.185 11.7 4.902 1.165 11.214-2.962 19.419-12.379 7.914-9.418 14.272-21.894 19.078-37.477 4.709-15.68 6.262-33.399 4.709-53.157-1.651-19.807-9.758-39.564-24.127-59.177-14.321-20.292-27.719-35.244-40.292-44.905-12.525-9.612-25.292-18.205-38.448-25.292-13.058-7.282-27.234-15.098-42.284-23.642-15.146-8.447-32.477-21.699-51.943-39.807-23.010-19.661-40.633-39.322-53.206-58.74-12.719-19.419-23.252-36.749-31.652-51.991-8.35-15.195-16.991-27.234-25.632-36.068-8.738-8.98-20.583-13.058-35.486-12.379-17.767 0.291-32.526 6.407-44.176 18.205-11.942 11.845-18.738 27.817-20.73 47.914-9.418 90.537-17.767 172.481-25.146 246.852l85.585 67.818z" p-id="13848" fill="#e6e6e6"></path><path d="M461.805 604.964l-7.669 78.594c-10.145-5.147-26.020-11.311-47.622-18.35-21.651-7.087-46.604-11.408-74.759-13.156-28.205-1.699-57.963 1.262-89.081 8.738-31.215 7.476-61.070 23.059-89.663 46.944-28.593 23.836-44.515 50.73-47.866 80.974-3.253 30.146 3.009 58.788 18.738 85.974 15.777 27.088 39.516 50.633 71.216 70.537 31.797 19.903 68.498 30.875 110.1 32.865 40.924 1.796 75.681-2.282 104.324-12.525 28.69-10.194 52.041-23.447 70.342-39.953 18.205-16.457 31.361-34.564 39.371-54.419 8.059-19.855 12.428-38.253 13.398-54.905l14.078-143.985-84.906-67.332z" p-id="13849" fill="#e6e6e6"></path></svg>